<svg xmlns="http://www.w3.org/2000/svg" width="411.91" height="340" viewBox="0 0 411.91 340"><g transform="translate(-28.085 -64.047)"><path d="M421.272,251.265A187.232,187.232,0,1,0,63.472,328.5H404.608a186.668,186.668,0,0,0,16.664-77.233Z" fill="#f0f2ff"/><line x2="365.102" transform="translate(51.489 328.498)" fill="none" stroke="#4550e5" stroke-linecap="round" stroke-linejoin="round" stroke-width="4.681"/><line x2="11.702" transform="translate(30.425 328.498)" fill="none" stroke="#4550e5" stroke-linecap="round" stroke-linejoin="round" stroke-width="4.681"/><line x2="11.702" transform="translate(425.953 328.498)" fill="none" stroke="#4550e5" stroke-linecap="round" stroke-linejoin="round" stroke-width="4.681"/><path d="M300.18,204.13l16.8,30.8a23.4,23.4,0,0,1,2.855,11.234v56.17l3.791,3.838a9.362,9.362,0,0,1,2.762,6.6v15.774H300.18Z" fill="#d6daff" stroke="#4550e5" stroke-linecap="round" stroke-linejoin="round" stroke-width="4.681"/><line x2="16.383" transform="translate(306.733 292.597)" fill="none" stroke="#4550e5" stroke-linecap="round" stroke-linejoin="round" stroke-width="4.681"/><path d="M129.8,204.13l-16.8,30.8a23.4,23.4,0,0,0-2.855,11.234v56.17l-3.838,3.838a9.362,9.362,0,0,0-2.715,6.6v15.774H129.8Z" fill="#d6daff" stroke="#4550e5" stroke-linecap="round" stroke-linejoin="round" stroke-width="4.681"/><path d="M369.783,104.616a7.162,7.162,0,0,0-2.808.562,13.059,13.059,0,0,0-25.838,0,7.161,7.161,0,0,0-2.808-.562,7.864,7.864,0,0,0,0,15.727h31.455a7.864,7.864,0,0,0,0-15.727Z" fill="#fff"/><path d="M369.783,104.616a7.162,7.162,0,0,0-2.808.562,13.059,13.059,0,0,0-25.838,0,7.161,7.161,0,0,0-2.808-.562,7.864,7.864,0,0,0,0,15.727h31.455a7.864,7.864,0,0,0,0-15.727Z" fill="none" stroke="#4550e5" stroke-linejoin="round" stroke-width="4.681"/><path d="M247.755,79.62v81.914H182.223V79.62H123.245V292.6l3.277,3.277v13.106l-3.277,3.277v16.383H306.733V308.979l-3.277-3.277v-9.83l3.277-3.277V79.62Z" fill="#fff"/><path d="M369.783,104.616a7.162,7.162,0,0,0-2.808.562,13.059,13.059,0,0,0-25.838,0,7.161,7.161,0,0,0-2.808-.562,7.864,7.864,0,0,0,0,15.727h31.455a7.864,7.864,0,0,0,0-15.727Z" fill="none" stroke="#4550e5" stroke-linejoin="round" stroke-width="4.681"/><path d="M247.755,79.62v81.914H182.223V79.62H123.245V292.6l3.277,3.277v13.106l-3.277,3.277v16.383H306.733V308.979l-3.277-3.277v-9.83l3.277-3.277V79.62Z" fill="none" stroke="#4550e5" stroke-linecap="round" stroke-linejoin="round" stroke-width="4.681"/><rect width="183.487" height="19.659" transform="translate(123.245 246.725)" fill="#d6daff" stroke="#4550e5" stroke-linecap="round" stroke-linejoin="round" stroke-width="4.681"/><path d="M310.243,161.534H119.688a1.638,1.638,0,0,0-1.357,2.528h0a29.115,29.115,0,0,1,4.681,16.1v7.583H306.5v-7.583a29.068,29.068,0,0,1,4.681-16.1h0a1.638,1.638,0,0,0-.936-2.528Z" fill="#d6daff" stroke="#4550e5" stroke-linecap="round" stroke-linejoin="round" stroke-width="4.681"/><path d="M214.989,279.49h0a26.072,26.072,0,0,0-16.383,24.2v24.949h32.766V303.69a26.166,26.166,0,0,0-16.383-24.2Z" fill="#d6daff" stroke="#4550e5" stroke-linecap="round" stroke-linejoin="round" stroke-width="4.681"/><path d="M152.734,286.044h0a26.68,26.68,0,0,0-13.106,24.2v18.4h26.212v-18.4a26.774,26.774,0,0,0-13.106-24.2Z" fill="#d6daff" stroke="#4550e5" stroke-linecap="round" stroke-linejoin="round" stroke-width="4.681"/><path d="M152.734,204.13h0a26.681,26.681,0,0,0-13.106,24.2v18.4h26.212v-18.4A26.774,26.774,0,0,0,152.734,204.13Z" fill="#d6daff" stroke="#4550e5" stroke-linecap="round" stroke-linejoin="round" stroke-width="4.681"/><path d="M277.244,204.13h0a26.681,26.681,0,0,0-13.106,24.2v18.4h26.072v-18.4a26.774,26.774,0,0,0-12.966-24.2Z" fill="#d6daff" stroke="#4550e5" stroke-linecap="round" stroke-linejoin="round" stroke-width="4.681"/><path d="M277.244,286.044h0a26.681,26.681,0,0,0-13.106,24.2v18.4h26.072v-18.4a26.774,26.774,0,0,0-12.966-24.2Z" fill="#d6daff" stroke="#4550e5" stroke-linecap="round" stroke-linejoin="round" stroke-width="4.681"/><line y2="42.595" transform="translate(182.223 246.725)" fill="none" stroke="#4550e5" stroke-linecap="round" stroke-linejoin="round" stroke-width="4.681"/><line y2="42.595" transform="translate(247.755 246.725)" fill="none" stroke="#4550e5" stroke-linecap="round" stroke-linejoin="round" stroke-width="4.681"/><line y2="16.383" transform="translate(182.223 187.747)" fill="none" stroke="#4550e5" stroke-linecap="round" stroke-linejoin="round" stroke-width="4.681"/><line y2="16.383" transform="translate(247.755 187.747)" fill="none" stroke="#4550e5" stroke-linecap="round" stroke-linejoin="round" stroke-width="4.681"/><path d="M214.989,197.576h0a26.212,26.212,0,0,0-26.212,26.212v22.936H241.2V223.789A26.212,26.212,0,0,0,214.989,197.576Z" fill="#d6daff" stroke="#4550e5" stroke-linecap="round" stroke-linejoin="round" stroke-width="4.681"/><circle cx="16.383" cy="16.383" r="16.383" transform="translate(198.606 207.406)" fill="#d6daff"/><path d="M226.691,212.415a16.149,16.149,0,0,0-11.7-5.008,16.336,16.336,0,0,0-4.681,32.063Z" fill="#fff"/><circle cx="16.383" cy="16.383" r="16.383" transform="translate(198.606 207.406)" fill="none" stroke="#4550e5" stroke-linecap="round" stroke-linejoin="round" stroke-width="4.681"/><line y2="6.553" transform="translate(182.223 299.15)" fill="none" stroke="#4550e5" stroke-linecap="round" stroke-linejoin="round" stroke-width="4.681"/><line y2="6.553" transform="translate(247.755 299.15)" fill="none" stroke="#4550e5" stroke-linecap="round" stroke-linejoin="round" stroke-width="4.681"/><line y1="19.659" transform="translate(152.734 246.725)" fill="none" stroke="#4550e5" stroke-linecap="round" stroke-linejoin="round" stroke-width="4.681"/><line y1="9.83" transform="translate(136.352 256.555)" fill="none" stroke="#4550e5" stroke-linecap="round" stroke-linejoin="round" stroke-width="4.681"/><line y1="9.83" transform="translate(169.117 256.555)" fill="none" stroke="#4550e5" stroke-linecap="round" stroke-linejoin="round" stroke-width="4.681"/><line y1="19.659" transform="translate(214.989 246.725)" fill="none" stroke="#4550e5" stroke-linecap="round" stroke-linejoin="round" stroke-width="4.681"/><line y1="9.83" transform="translate(198.606 256.555)" fill="none" stroke="#4550e5" stroke-linecap="round" stroke-linejoin="round" stroke-width="4.681"/><line y1="9.83" transform="translate(231.372 256.555)" fill="none" stroke="#4550e5" stroke-linecap="round" stroke-linejoin="round" stroke-width="4.681"/><line y1="19.659" transform="translate(277.244 246.725)" fill="none" stroke="#4550e5" stroke-linecap="round" stroke-linejoin="round" stroke-width="4.681"/><line y1="9.83" transform="translate(260.861 256.555)" fill="none" stroke="#4550e5" stroke-linecap="round" stroke-linejoin="round" stroke-width="4.681"/><line y1="9.83" transform="translate(293.626 256.555)" fill="none" stroke="#4550e5" stroke-linecap="round" stroke-linejoin="round" stroke-width="4.681"/><path d="M148.99,167.619l-2.808-2.808-2.808,2.808a12.732,12.732,0,0,0-3.745,9.081v11.047h13.106V176.7a12.919,12.919,0,0,0-3.745-9.081Z" fill="#fff" stroke="#4550e5" stroke-linecap="round" stroke-linejoin="round" stroke-width="4.681"/><path d="M183.394,167.619l-2.808-2.808-2.808,2.808a12.732,12.732,0,0,0-3.745,9.081v11.047h13.2V176.7a12.919,12.919,0,0,0-3.838-9.081Z" fill="#fff" stroke="#4550e5" stroke-linecap="round" stroke-linejoin="round" stroke-width="4.681"/><path d="M217.8,167.619l-2.808-2.808-2.808,2.808a12.732,12.732,0,0,0-3.745,9.081v11.047h13.106V176.7A12.919,12.919,0,0,0,217.8,167.619Z" fill="#fff" stroke="#4550e5" stroke-linecap="round" stroke-linejoin="round" stroke-width="4.681"/><path d="M252.2,167.619l-2.808-2.808-2.808,2.808a12.732,12.732,0,0,0-3.745,9.081v11.047h13.106V176.7A12.919,12.919,0,0,0,252.2,167.619Z" fill="#fff" stroke="#4550e5" stroke-linecap="round" stroke-linejoin="round" stroke-width="4.681"/><path d="M280.848,167.619l2.808-2.808,2.808,2.808a12.919,12.919,0,0,1,3.745,9.081v11.047H277.1V176.7a12.732,12.732,0,0,1,3.745-9.081Z" fill="#fff" stroke="#4550e5" stroke-linecap="round" stroke-linejoin="round" stroke-width="4.681"/><line y2="6.553" transform="translate(165.841 161.534)" fill="none" stroke="#4550e5" stroke-linecap="round" stroke-linejoin="round" stroke-width="4.681"/><line y2="6.553" transform="translate(133.075 161.534)" fill="none" stroke="#4550e5" stroke-linecap="round" stroke-linejoin="round" stroke-width="4.681"/><line y2="6.553" transform="translate(198.606 161.534)" fill="none" stroke="#4550e5" stroke-linecap="round" stroke-linejoin="round" stroke-width="4.681"/><line y2="6.553" transform="translate(231.372 161.534)" fill="none" stroke="#4550e5" stroke-linecap="round" stroke-linejoin="round" stroke-width="4.681"/><line y2="6.553" transform="translate(264.137 161.534)" fill="none" stroke="#4550e5" stroke-linecap="round" stroke-linejoin="round" stroke-width="4.681"/><line y2="6.553" transform="translate(296.903 161.534)" fill="none" stroke="#4550e5" stroke-linecap="round" stroke-linejoin="round" stroke-width="4.681"/><path d="M213.164,305.7h3.745a4.681,4.681,0,0,1,4.681,4.681v18.255H208.483V310.384A4.681,4.681,0,0,1,213.164,305.7Z" fill="#d6daff"/><path d="M216.908,305.7h-3.745a4.681,4.681,0,0,0-4.681,4.681v18.255h.936l11.889-19.706A4.681,4.681,0,0,0,216.908,305.7Z" fill="#fff"/><path d="M213.164,305.7h3.745a4.681,4.681,0,0,1,4.681,4.681v18.255H208.483V310.384A4.681,4.681,0,0,1,213.164,305.7Z" fill="none" stroke="#4550e5" stroke-linecap="round" stroke-linejoin="round" stroke-width="4.681"/><path d="M139.628,105.833h0a22.374,22.374,0,0,0-6.553,15.868v39.88h13.106V121.7A22.608,22.608,0,0,0,139.628,105.833Z" fill="#d6daff"/><path d="M146.181,127.833V121.7a22.608,22.608,0,0,0-6.553-15.821h0a22.374,22.374,0,0,0-6.553,15.821v28.085Z" fill="#fff"/><path d="M139.628,105.833h0a22.374,22.374,0,0,0-6.553,15.868v39.88h13.106V121.7A22.608,22.608,0,0,0,139.628,105.833Z" fill="none" stroke="#4550e5" stroke-linecap="round" stroke-linejoin="round" stroke-width="4.681"/><path d="M165.841,105.833h0a22.374,22.374,0,0,0-6.694,15.868v39.88h13.106V121.7A22.608,22.608,0,0,0,165.841,105.833Z" fill="#d6daff"/><path d="M172.394,127.833V121.7a22.608,22.608,0,0,0-6.553-15.821h0a22.374,22.374,0,0,0-6.694,15.821v28.085Z" fill="#fff"/><path d="M165.841,105.833h0a22.374,22.374,0,0,0-6.694,15.868v39.88h13.106V121.7A22.608,22.608,0,0,0,165.841,105.833Z" fill="none" stroke="#4550e5" stroke-linecap="round" stroke-linejoin="round" stroke-width="4.681"/><path d="M264.137,105.833h0a22.374,22.374,0,0,0-6.694,15.868v39.88H270.55V121.7a22.608,22.608,0,0,0-6.413-15.868Z" fill="#d6daff"/><path d="M270.691,127.833V121.7a22.608,22.608,0,0,0-6.553-15.821h0a22.374,22.374,0,0,0-6.694,15.821v28.085Z" fill="#fff"/><path d="M264.137,105.833h0a22.374,22.374,0,0,0-6.694,15.868v39.88H270.55V121.7a22.608,22.608,0,0,0-6.413-15.868Z" fill="none" stroke="#4550e5" stroke-linecap="round" stroke-linejoin="round" stroke-width="4.681"/><path d="M290.209,105.833h0A22.374,22.374,0,0,0,283.8,121.7v39.88H296.9V121.7A22.608,22.608,0,0,0,290.209,105.833Z" fill="#d6daff"/><path d="M296.9,127.833V121.7a22.608,22.608,0,0,0-6.694-15.868h0A22.374,22.374,0,0,0,283.8,121.7v28.085Z" fill="#fff"/><path d="M290.209,105.833h0A22.374,22.374,0,0,0,283.8,121.7v39.88H296.9V121.7A22.608,22.608,0,0,0,290.209,105.833Z" fill="none" stroke="#4550e5" stroke-linecap="round" stroke-linejoin="round" stroke-width="4.681"/><line x2="65.531" transform="translate(119.969 92.727)" fill="none" stroke="#4550e5" stroke-linecap="round" stroke-linejoin="round" stroke-width="4.681"/><line x2="65.531" transform="translate(119.969 79.62)" fill="none" stroke="#4550e5" stroke-linecap="round" stroke-linejoin="round" stroke-width="4.681"/><line x2="65.531" transform="translate(244.478 92.727)" fill="none" stroke="#4550e5" stroke-linecap="round" stroke-linejoin="round" stroke-width="4.681"/><line x2="65.531" transform="translate(244.478 79.62)" fill="none" stroke="#4550e5" stroke-linecap="round" stroke-linejoin="round" stroke-width="4.681"/><line x2="190.04" transform="translate(119.969 187.747)" fill="none" stroke="#4550e5" stroke-linecap="round" stroke-linejoin="round" stroke-width="4.681"/><line x2="216.253" transform="translate(106.863 246.725)" fill="none" stroke="#4550e5" stroke-linecap="round" stroke-linejoin="round" stroke-width="4.681"/><line x1="16.383" transform="translate(106.863 292.597)" fill="none" stroke="#4550e5" stroke-linecap="round" stroke-linejoin="round" stroke-width="4.681"/><rect width="58.978" height="13.106" transform="translate(123.245 79.62)" fill="#d6daff" stroke="#4550e5" stroke-linecap="round" stroke-linejoin="round" stroke-width="4.681"/><rect width="58.978" height="13.106" transform="translate(247.755 79.62)" fill="#d6daff" stroke="#4550e5" stroke-linecap="round" stroke-linejoin="round" stroke-width="4.681"/><line y2="32.766" transform="translate(214.989 207.406)" fill="none" stroke="#4550e5" stroke-linecap="round" stroke-linejoin="round" stroke-width="4.681"/><line x2="32.766" transform="translate(198.606 223.789)" fill="none" stroke="#4550e5" stroke-linecap="round" stroke-linejoin="round" stroke-width="4.681"/><rect width="26.212" height="19.659" transform="translate(139.628 227.066)" fill="#d6daff"/><path d="M139.628,227.066v19.659h9.83l11.8-19.659Z" fill="#fff"/><rect width="26.212" height="19.659" transform="translate(139.628 227.066)" fill="none" stroke="#4550e5" stroke-linecap="round" stroke-linejoin="round" stroke-width="4.681"/><rect width="26.212" height="19.659" transform="translate(264.137 227.066)" fill="#d6daff"/><path d="M264.137,227.066v19.659h9.83l11.8-19.659Z" fill="#fff"/><rect width="26.212" height="19.659" transform="translate(264.137 227.066)" fill="none" stroke="#4550e5" stroke-linecap="round" stroke-linejoin="round" stroke-width="4.681"/><rect width="26.212" height="19.659" transform="translate(139.628 308.979)" fill="#d6daff"/><path d="M139.628,308.979v19.659h9.83l11.8-19.659Z" fill="#fff"/><rect width="26.212" height="19.659" transform="translate(139.628 308.979)" fill="none" stroke="#4550e5" stroke-linecap="round" stroke-linejoin="round" stroke-width="4.681"/><rect width="26.212" height="19.659" transform="translate(264.137 308.979)" fill="#d6daff"/><path d="M264.137,308.979v19.659h9.83l11.8-19.659Z" fill="#fff"/><rect width="26.212" height="19.659" transform="translate(264.137 308.979)" fill="none" stroke="#4550e5" stroke-linecap="round" stroke-linejoin="round" stroke-width="4.681"/><path d="M369.783,291.473c0,10.859-3.885,20.268-8.238,20.268s-8.238-9.362-8.238-20.268,8.238-39.459,8.238-39.459S369.783,280.567,369.783,291.473Z" fill="#d6daff" stroke="#4550e5" stroke-linecap="round" stroke-linejoin="round" stroke-width="4.681"/><line y2="16.898" transform="translate(361.685 311.741)" fill="none" stroke="#4550e5" stroke-linecap="round" stroke-linejoin="round" stroke-width="4.681"/><path d="M80.51,262.125a12.825,12.825,0,0,1-25.6,0" fill="none" stroke="#4550e5" stroke-linecap="round" stroke-linejoin="round" stroke-width="4.681"/><path d="M59.68,257.444H50.319a2.481,2.481,0,0,1-1.5-.562,1.966,1.966,0,0,0,0,.749l.936,6.974a2.387,2.387,0,0,0,2.34,2.013h6.038a2.294,2.294,0,0,0,2.294-2.013l.936-6.974a1.966,1.966,0,0,0,0-.749,2.247,2.247,0,0,1-1.685.562Z" fill="#fff" stroke="#4550e5" stroke-linecap="round" stroke-linejoin="round" stroke-width="4.681"/><path d="M54.906,247.333a7.115,7.115,0,0,0-7.068,7.115c0,2.06,1.03,2.9,2.34,2.9H59.54c1.311,0,2.34-.843,2.34-2.9a7.115,7.115,0,0,0-6.976-7.115Z" fill="#d6daff" stroke="#4550e5" stroke-linecap="round" stroke-linejoin="round" stroke-width="4.681"/><path d="M85.284,257.444H75.923a2.247,2.247,0,0,1-1.451-.562,3.651,3.651,0,0,0,0,.749l.936,6.974a2.387,2.387,0,0,0,2.34,2.013h6.038a2.294,2.294,0,0,0,2.294-2.013l.749-7.162a3.651,3.651,0,0,0,0-.749,2.247,2.247,0,0,1-1.545.749Z" fill="#fff" stroke="#4550e5" stroke-linecap="round" stroke-linejoin="round" stroke-width="4.681"/><path d="M80.51,247.333a7.115,7.115,0,0,0-7.068,7.115c0,2.06,1.03,2.9,2.34,2.9h9.362c1.311,0,2.34-.843,2.34-2.9a7.115,7.115,0,0,0-6.976-7.115Z" fill="#d6daff" stroke="#4550e5" stroke-linecap="round" stroke-linejoin="round" stroke-width="4.681"/><line y2="53.782" transform="translate(67.731 274.856)" fill="none" stroke="#4550e5" stroke-linecap="round" stroke-linejoin="round" stroke-width="4.681"/><ellipse cx="63.191" cy="7.021" rx="63.191" ry="7.021" transform="translate(91.135 390.004)" fill="#f0f2ff"/><path d="M178.806,321.29v16.476H100.544a4.681,4.681,0,0,0-4.681,4.681v38.476a4.681,4.681,0,0,0,3.979,4.681l11.187,1.732h94.552a4.681,4.681,0,0,0,4.681-4.681V346.379a70.21,70.21,0,0,0-.7-9.923L207.874,324.8a9.362,9.362,0,0,0-9.362-8.051H183.487A4.681,4.681,0,0,0,178.806,321.29Z" fill="#fff" stroke="#4550e5" stroke-linecap="round" stroke-linejoin="round" stroke-width="4.681"/><path d="M130.267,387.289a8.566,8.566,0,1,1-8.566-8.566,8.566,8.566,0,0,1,8.566,8.566Z" fill="#d6daff" stroke="#4550e5" stroke-linecap="round" stroke-linejoin="round" stroke-width="4.681"/><path d="M191.585,387.289a8.566,8.566,0,1,1-8.566-8.566A8.566,8.566,0,0,1,191.585,387.289Z" fill="#d6daff" stroke="#4550e5" stroke-linecap="round" stroke-linejoin="round" stroke-width="4.681"/><rect width="16.383" height="31.034" transform="translate(141.641 356.256)" fill="#d6daff" stroke="#4550e5" stroke-linecap="round" stroke-linejoin="round" stroke-width="4.681"/><rect width="25.838" height="14.23" transform="translate(106.348 356.256)" fill="#d6daff"/><rect width="25.838" height="14.23" transform="translate(106.348 356.256)" fill="none" stroke="#4550e5" stroke-linecap="round" stroke-linejoin="round" stroke-width="4.681"/><rect width="16.383" height="14.23" transform="translate(167.292 356.256)" fill="#d6daff"/><rect width="16.383" height="14.23" transform="translate(167.292 356.256)" fill="none" stroke="#4550e5" stroke-linecap="round" stroke-linejoin="round" stroke-width="4.681"/><rect width="16.383" height="14.23" transform="translate(193.879 356.256)" fill="#d6daff"/><rect width="16.383" height="14.23" transform="translate(193.879 356.256)" fill="none" stroke="#4550e5" stroke-linecap="round" stroke-linejoin="round" stroke-width="4.681"/><path d="M193.6,338.094h16.149l-1.638-11.608H193.6a4.681,4.681,0,0,0-4.681,4.681v2.34a4.681,4.681,0,0,0,4.681,4.587Z" fill="#d6daff"/><path d="M193.6,338.094h16.149l-1.638-11.608H193.6a4.681,4.681,0,0,0-4.681,4.681v2.34a4.681,4.681,0,0,0,4.681,4.587Z" fill="none" stroke="#4550e5" stroke-linecap="round" stroke-linejoin="round" stroke-width="4.681"/><path d="M106.909,328.639h71.9v9.128H102.229V333.32A4.681,4.681,0,0,1,106.909,328.639Z" fill="none" stroke="#4550e5" stroke-linecap="round" stroke-linejoin="round" stroke-width="4.681"/><rect width="10.906" height="9.128" transform="translate(115.288 328.639)" fill="none" stroke="#4550e5" stroke-linecap="round" stroke-linejoin="round" stroke-width="4.681"/><rect width="10.906" height="9.128" transform="translate(136.539 328.639)" fill="none" stroke="#4550e5" stroke-linecap="round" stroke-linejoin="round" stroke-width="4.681"/><rect width="10.906" height="9.128" transform="translate(158.024 328.639)" fill="none" stroke="#4550e5" stroke-linecap="round" stroke-linejoin="round" stroke-width="4.681"/><rect width="16.383" height="14.23" transform="translate(141.641 356.256)" fill="#d6daff" stroke="#4550e5" stroke-linecap="round" stroke-linejoin="round" stroke-width="4.681"/><line x2="93.382" transform="translate(107.237 347.034)" fill="none" stroke="#4550e5" stroke-linecap="round" stroke-linejoin="round" stroke-width="4.681"/></g></svg>