<svg xmlns="http://www.w3.org/2000/svg" width="40" height="40" viewBox="0 0 40 40"><rect width="40" height="40" rx="4" fill="#45d"/><path d="M39.59,18.865a5.625,5.625,0,0,1-3.125.938,5.625,5.625,0,0,0,2.5-3.125,5.625,5.625,0,0,1-3.516,1.328,5.625,5.625,0,0,0-9.531,5.078A15.625,15.625,0,0,1,14.59,17.3a5.625,5.625,0,0,0,1.719,7.344,5.625,5.625,0,0,1-2.5-.547,5.625,5.625,0,0,0,4.375,5.391,5.625,5.625,0,0,1-2.5.078,5.625,5.625,0,0,0,5.234,3.906,15.625,15.625,0,0,1-8.2,2.266A15.625,15.625,0,0,0,36.855,21.756a15.625,15.625,0,0,0,2.734-2.891" transform="translate(-5.449 -6.99)"/></svg>