<svg xmlns="http://www.w3.org/2000/svg" width="40" height="40" viewBox="0 0 40 40"><rect width="40" height="40" rx="4" fill="#45d"/><path d="M37.922,20.871a3.551,3.551,0,0,0-2.5-2.422c-2.656-.7-18.672-.781-21.719,0a3.551,3.551,0,0,0-2.5,2.422c-.7,2.969-.781,10.547,0,13.594a3.551,3.551,0,0,0,2.5,2.422c2.812.781,18.828.781,21.719,0a3.551,3.551,0,0,0,2.5-2.422,44.065,44.065,0,0,0,0-13.594" transform="translate(-4.563 -7.668)"/><path d="M30.078,27.754v8.281l7.266-4.141" transform="translate(-12.891 -11.895)" fill="#45d"/></svg>